<svg xmlns="http://www.w3.org/2000/svg" viewBox="0 0 32 32" width="32" height="32">
  <defs>
    <linearGradient id="grad1" x1="0%" y1="0%" x2="100%" y2="100%">
      <stop offset="0%" style="stop-color:#4A90E2;stop-opacity:1" />
      <stop offset="100%" style="stop-color:#357ABD;stop-opacity:1" />
    </linearGradient>
  </defs>
  
  <!-- Background -->
  <rect width="32" height="32" rx="4" fill="url(#grad1)"/>
  
  <!-- Tetris blocks -->
  <rect x="8" y="8" width="4" height="4" fill="#FF6B6B"/>
  <rect x="12" y="8" width="4" height="4" fill="#4ECDC4"/>
  <rect x="16" y="8" width="4" height="4" fill="#45B7D1"/>
  <rect x="20" y="8" width="4" height="4" fill="#96CEB4"/>
  
  <rect x="8" y="12" width="4" height="4" fill="#FFEAA7"/>
  <rect x="12" y="12" width="4" height="4" fill="#DDA0DD"/>
  <rect x="16" y="12" width="4" height="4" fill="#98D8C8"/>
  <rect x="20" y="12" width="4" height="4" fill="#F7DC6F"/>
  
  <rect x="8" y="16" width="4" height="4" fill="#BB8FCE"/>
  <rect x="12" y="16" width="4" height="4" fill="#85C1E9"/>
  <rect x="16" y="16" width="4" height="4" fill="#F8C471"/>
  <rect x="20" y="16" width="4" height="4" fill="#82E0AA"/>
  
  <rect x="8" y="20" width="4" height="4" fill="#F1948A"/>
  <rect x="12" y="20" width="4" height="4" fill="#85C1E9"/>
  <rect x="16" y="20" width="4" height="4" fill="#F7DC6F"/>
  <rect x="20" y="20" width="4" height="4" fill="#BB8FCE"/>
</svg> 